<svg id="color" enable-background="new 0 0 24 24" height="512" viewBox="0 0 24 24" width="512" xmlns="http://www.w3.org/2000/svg"><path d="m21 3v7.3c-.62-.31-1.34-.38-2-.189v-5.111h-17v11c0 .55.45 1 1 1h9.81c-.31.63-.529 1.3-.659 2h-9.151c-1.65 0-3-1.35-3-3v-13c0-1.65 1.35-3 3-3h15c1.65 0 3 1.35 3 3z" fill="#607d8b"/><path d="m19 5v5.11c-.15.04-.3.1-.45.17-.94.45-1.55 1.43-1.55 2.47v.34c-1.83.75-3.33 2.15-4.19 3.91h-9.81c-.55 0-1-.45-1-1v-11z" fill="#fff"/><path d="m10.5 0h-7.5c-1.65 0-3 1.35-3 3v13c0 1.65 1.35 3 3 3h7.5v-2h-7.5c-.55 0-1-.45-1-1v-11h8.5z" fill="#546d79"/><path d="m10.5 5h-8.5v11c0 .55.45 1 1 1h7.5z" fill="#dedede"/><path d="m23.713 14.91-3.5-2.75c-.226-.178-.533-.21-.791-.084-.258.125-.422.387-.422.674v1.84c-2.833.479-5 2.943-5 5.91v2.5c0 .553.447 1 1 1s1-.447 1-1v-2.5c0-1.858 1.279-3.411 3-3.858v1.608c0 .287.164.549.422.674.104.051.217.076.328.076.165 0 .328-.055.463-.16l3.5-2.75c.182-.143.287-.36.287-.59s-.105-.447-.287-.59z" fill="#4caf50"/><path d="m23.995 15.417h-7.171c-1.694 1.06-2.824 2.941-2.824 5.083v2.5c0 .553.447 1 1 1s1-.447 1-1v-2.5c0-1.858 1.279-3.411 3-3.858v1.608c0 .287.164.549.422.674.104.051.217.076.328.076.165 0 .328-.055.463-.16l3.5-2.75c.182-.143.287-.36.287-.59 0-.028-.002-.056-.005-.083z" fill="#429846"/></svg>