<svg height="512" viewBox="0 0 64 64" width="512" xmlns="http://www.w3.org/2000/svg"><g id="Chart"><path d="m44.8 60.4-11.959-16a1 1 0 0 0 -.8-.4 1 1 0 0 0 -.8.4l-12.041 16a1 1 0 1 0 1.6 1.2l3.461-4.6h15.5l3.439 4.6a1 1 0 0 0 1.6-1.2zm-19.033-5.4 6.271-8.333 6.229 8.333z" fill="#58595b"/><path d="m59 7a2 2 0 0 0 0-4h-54a2 2 0 0 0 0 4z" fill="#006df0"/><path d="m5 41a2 2 0 0 0 0 4h54a2 2 0 0 0 0-4z" fill="#006df0"/><path d="m6 7h52v34h-52z" fill="#ffde55"/><path d="m56 7v16a16 16 0 0 1 -16 16h-34v2h52v-34z" fill="#ffcd00"/><path d="m48 16h2a1 1 0 0 1 1 1 1 1 0 0 0 2 0 3 3 0 0 0 -3-3v-1a1 1 0 0 0 -2 0v1a3 3 0 0 0 0 6h2a1 1 0 0 1 0 2h-2a1 1 0 0 1 -1-1 1 1 0 0 0 -2 0 3 3 0 0 0 3 3v1a1 1 0 0 0 2 0v-1a3 3 0 0 0 0-6h-2a1 1 0 0 1 0-2z" fill="#ed1c24"/><path d="m47 36h-36v-23a1 1 0 0 0 -2 0v24a1 1 0 0 0 1 1h37a1 1 0 0 0 0-2z" fill="#005ece"/><path d="m14 29a1 1 0 0 0 .8-.4l2.2-2.933 2.2 2.933a.972.972 0 0 0 .862.4 1 1 0 0 0 .806-.5l3.712-6.5h6.42a1 1 0 0 0 .813-.419l4.159-5.821 1.2 1.8a1 1 0 1 0 1.664-1.11l-2-3a1 1 0 0 0 -.819-.45h-.017a1 1 0 0 0 -.813.419l-4.702 6.581h-6.485a1 1 0 0 0 -.868.5l-3.245 5.679-2.087-2.779a1.036 1.036 0 0 0 -1.6 0l-3 4a1 1 0 0 0 .8 1.6z" fill="#4e901e"/><path d="m14 34h8a1 1 0 0 0 .781-.375l3.194-3.992 2.225 2.967a.985.985 0 0 0 .852.4 1 1 0 0 0 .8-.484l2.714-4.516h4.434a1 1 0 0 0 .707-.293l4-4a1 1 0 0 0 -1.414-1.414l-3.707 3.707h-4.586a1 1 0 0 0 -.857.485l-2.236 3.725-2.107-2.81a1 1 0 0 0 -.784-.4 1.028 1.028 0 0 0 -.8.375l-3.696 4.625h-7.52a1 1 0 0 0 0 2z" fill="#ab2300"/></g></svg>