<svg height="512" viewBox="0 0 512 512" width="512" xmlns="http://www.w3.org/2000/svg"><g id="Filled_outline" data-name="Filled outline"><path d="m464 440h-320a24 24 0 0 1 -24-24v-368a24 24 0 0 1 24-24h264l80 80v312a24 24 0 0 1 -24 24z" fill="#4db7e5"/><g fill="#2b78b8"><path d="m272 152h64v-16h-56v-16h56v-16h-56v-16h56v-16h-64a8 8 0 0 0 -8 8v64a8 8 0 0 0 8 8z"/><path d="m200 232v-16h-32v-24h32v-16h-40a8 8 0 0 0 -8 8v40a8 8 0 0 0 8 8z"/><path d="m288 232v-48a8 8 0 0 0 -8-8h-40a8 8 0 0 0 -8 8v48h16v-40h24v40z"/><path d="m320 192h32v24h-32v16h40a8 8 0 0 0 8-8v-40a8 8 0 0 0 -8-8h-40z"/><path d="m448 176h-40a8 8 0 0 0 -8 8v48h16v-40h24v40h16v-48a8 8 0 0 0 -8-8z"/><path d="m200 264h-32a8 8 0 0 0 -8 8v40h16v-32h16v32h16v-40a8 8 0 0 0 -8-8z"/><path d="m224 272v32a8 8 0 0 0 8 8h32v-16h-24v-16h24v-16h-32a8 8 0 0 0 -8 8z"/><path d="m312 296h-16v-32h-16v40a8 8 0 0 0 8 8h32a8 8 0 0 0 8-8v-40h-16z"/><path d="m392 264h-16v32h-16v-32h-16v40a8 8 0 0 0 8 8h32a8 8 0 0 0 8-8z"/><path d="m440 264h-32v16h24v16h-24v16h32a8 8 0 0 0 8-8v-32a8 8 0 0 0 -8-8z"/><path d="m176 352v16a8 8 0 0 0 8 8h24v-32h-24a8 8 0 0 0 -8 8z"/><path d="m256 344h-16a8 8 0 0 0 -8 8v24h32v-24a8 8 0 0 0 -8-8z"/><path d="m288 344v24a8 8 0 0 0 8 8h16a8 8 0 0 0 8-8v-24z"/><path d="m368 344h-24v32h24a8 8 0 0 0 8-8v-16a8 8 0 0 0 -8-8z"/><path d="m416 344h-16a8 8 0 0 0 -8 8v24h32v-24a8 8 0 0 0 -8-8z"/></g><path d="m360 400c-86.436-117.333-249.564-117.333-336 0 86.436 117.333 249.564 117.333 336 0z" fill="#e0e0de"/><circle cx="192" cy="400" fill="#348fd9" r="88"/><circle cx="192" cy="400" fill="#34507b" r="32"/><path d="m408 24v56a24 24 0 0 0 24 24h56z" fill="#79c6e8"/><path d="m432 104h56a0 0 0 0 1 0 0v24a0 0 0 0 1 0 0h-32a24 24 0 0 1 -24-24 0 0 0 0 1 0 0z" fill="#4aafdb"/><path d="m112 96h16v200h-16z"/><path d="m493.657 98.343-80-80a8 8 0 0 0 -5.657-2.343h-264a32.036 32.036 0 0 0 -32 32v32h16v-32a16.019 16.019 0 0 1 16-16h256v48a32.036 32.036 0 0 0 32 32h48v240h16v-248a8 8 0 0 0 -2.343-5.657zm-77.657-18.343v-36.686l52.686 52.686h-36.686a16.019 16.019 0 0 1 -16-16z"/><path d="m480 416a16.019 16.019 0 0 1 -16 16h-104v16h104a32.036 32.036 0 0 0 32-32v-48h-16z"/><path d="m264 80v64a8 8 0 0 0 8 8h64v-16h-56v-16h56v-16h-56v-16h56v-16h-64a8 8 0 0 0 -8 8z"/><path d="m152 184v40a8 8 0 0 0 8 8h40v-16h-32v-24h32v-16h-40a8 8 0 0 0 -8 8z"/><path d="m232 184v48h16v-40h24v40h16v-48a8 8 0 0 0 -8-8h-40a8 8 0 0 0 -8 8z"/><path d="m360 176h-40v16h32v24h-32v16h40a8 8 0 0 0 8-8v-40a8 8 0 0 0 -8-8z"/><path d="m456 184a8 8 0 0 0 -8-8h-40a8 8 0 0 0 -8 8v48h16v-40h24v40h16z"/><path d="m208 288v-16a8 8 0 0 0 -8-8h-32a8 8 0 0 0 -8 8v16h16v-8h16v8z"/><path d="m224 272v16h16v-8h24v-16h-32a8 8 0 0 0 -8 8z"/><path d="m280 264v40a8 8 0 0 0 8 8h32a8 8 0 0 0 8-8v-40h-16v32h-16v-32z"/><path d="m376 296h-16v-32h-16v40a8 8 0 0 0 8 8h32a8 8 0 0 0 8-8v-40h-16z"/><path d="m408 296v16h32a8 8 0 0 0 8-8v-32a8 8 0 0 0 -8-8h-32v16h24v16z"/><path d="m376 368v-16a8 8 0 0 0 -8-8h-24v16h16v8z"/><path d="m392 352v24h32v-24a8 8 0 0 0 -8-8h-16a8 8 0 0 0 -8 8z"/><path d="m366.441 404.745a8 8 0 0 0 0-9.49c-25.6-34.741-60.247-62.542-100.78-77.788a208.457 208.457 0 0 0 -173.478 12.033l7.634 14.061a195.1 195.1 0 0 1 23.891-10.961 95.825 95.825 0 0 0 -.02 134.776c-34.41-13.123-65.362-36.128-89.657-67.376a213.136 213.136 0 0 1 53.609-49.257l-8.61-13.486a230.326 230.326 0 0 0 -61.471 58 8 8 0 0 0 0 9.49c25.2 34.2 59.43 61.675 99.141 77.106 24.469 9.507 51.737 14.851 78.05 14.106 67.094-.885 129.544-34.002 171.691-91.214zm-254.441-4.745a80.077 80.077 0 0 1 78.519-79.962c1.048-.009 2.1 0 3.146 0a79.988 79.988 0 1 1 -81.665 79.962zm148.311 67.379a95.827 95.827 0 0 0 -.086-134.846c34.775 13.137 65.383 36.082 89.744 67.467-24.295 31.248-55.247 54.253-89.658 67.379z"/><path d="m192 360a40 40 0 1 0 40 40 40.045 40.045 0 0 0 -40-40zm0 64a24 24 0 1 1 24-24 24.028 24.028 0 0 1 -24 24z"/></g></svg>