<svg width="155" height="35" viewBox="0 0 155 35" fill="none" xmlns="http://www.w3.org/2000/svg">
<path d="M20.2718 1.33112L11.9253 6.8555C12.0559 6.93225 12.1864 7.009 12.3153 7.09454L22.3827 13.7585C27.1262 16.8983 27.1262 23.8651 22.3827 27.0049L20.6612 28.1445C25.8872 31.2081 32.5865 27.4578 32.5865 21.2825V7.95463C32.5871 1.62466 25.5476 -2.16079 20.2718 1.33112Z" fill="#00CE7C"/>
<path d="M10.2044 21.2416C5.46086 18.1018 5.46086 11.1349 10.2044 7.99514L11.926 6.85558C6.69931 3.79254 0 7.54283 0 13.7181V27.0454C0 33.3754 7.03951 37.1608 12.3153 33.6683L20.6612 28.144C20.5306 28.0672 20.4001 27.9905 20.2712 27.9049L10.2044 21.2416Z" fill="#121E49"/>
<path d="M22.3826 13.7584L12.3152 7.09451C12.1863 7.00956 12.0558 6.93222 11.9252 6.85547L10.2037 7.99503C5.46011 11.1348 5.46011 18.1017 10.2037 21.2415L20.2717 27.9054C20.4005 27.9903 20.5311 28.0677 20.6616 28.1444L22.3832 27.0049C27.1267 23.8651 27.1267 16.8982 22.3826 13.7584Z" fill="#096E53"/>
<path d="M40.5049 5.41945C40.5049 3.96996 41.6836 3.19482 42.8289 3.19482C43.9403 3.19482 45.153 3.96996 45.153 5.41945C45.153 6.90235 43.9403 7.77825 42.8289 7.77825C41.6842 7.77884 40.5049 6.90235 40.5049 5.41945Z" fill="#121E49"/>
<path d="M40.707 24.7645V10.8794C40.707 10.3738 41.0104 10.0703 41.5157 10.0703H44.1431C44.6484 10.0703 44.9511 10.3738 44.9511 10.8794L44.9177 24.7645C44.9177 25.2701 44.6144 25.5736 44.1091 25.5736H41.5157C41.0104 25.5736 40.707 25.2701 40.707 24.7645Z" fill="#121E49"/>
<path d="M48.8579 24.7643V10.8792C48.8579 10.3736 49.1606 10.0701 49.666 10.0701H52.2594C52.7647 10.0701 53.068 10.3396 53.068 10.8118V11.553C54.2467 10.2722 55.8974 9.83398 57.4128 9.83398C60.2083 9.83398 63.4423 11.3509 63.4423 16.1024V24.7637C63.4423 25.2693 63.1389 25.5728 62.6336 25.5728H60.0402C59.5349 25.5728 59.2316 25.2693 59.2316 24.7637V16.7428C59.2316 14.0132 57.3115 13.3722 56.1328 13.3722C54.9201 13.3722 53.068 14.0126 53.068 16.7428V24.7637C53.068 25.2693 52.7647 25.5728 52.2594 25.5728H49.666C49.1606 25.5734 48.8579 25.2699 48.8579 24.7643Z" fill="#121E49"/>
<path d="M67.147 24.7644V4.47611C67.147 3.97048 67.4497 3.66699 67.955 3.66699H70.5824C71.0877 3.66699 71.3911 3.97048 71.3911 4.47611L71.3577 24.765C71.3577 25.2706 71.0544 25.5741 70.549 25.5741H67.9556C67.4503 25.5735 67.147 25.27 67.147 24.7644Z" fill="#121E49"/>
<path d="M74.5229 17.8224C74.5229 13.1376 77.6217 9.83496 81.8658 9.83496C83.8192 9.83496 85.2678 10.5427 86.3119 11.7221V10.8796C86.3119 10.374 86.6146 10.0705 87.12 10.0705H89.7134C90.2187 10.0705 90.5214 10.374 90.5214 10.8796V24.7647C90.5214 25.2703 90.2187 25.5738 89.7134 25.5738H87.12C86.6146 25.5738 86.3119 25.2703 86.3119 24.7647V23.9561C85.2678 25.1355 83.8192 25.8433 81.8658 25.8433C77.6223 25.8433 74.5229 22.4392 74.5229 17.8224ZM86.3125 17.8224C86.3125 15.497 84.7965 13.778 82.4724 13.778C80.1484 13.778 78.599 15.497 78.599 17.8224C78.599 20.1478 80.1484 21.8668 82.4724 21.8668C84.7965 21.8662 86.3125 20.1478 86.3125 17.8224Z" fill="#121E49"/>
<path d="M94.2271 24.7643V10.8792C94.2271 10.3736 94.5298 10.0701 95.0351 10.0701H97.6285C98.1339 10.0701 98.4372 10.3396 98.4372 10.8118V11.553C99.6159 10.2722 101.267 9.83398 102.782 9.83398C105.577 9.83398 108.811 11.3509 108.811 16.1024V24.7637C108.811 25.2693 108.508 25.5728 108.003 25.5728H105.409C104.904 25.5728 104.601 25.2693 104.601 24.7637V16.7428C104.601 14.0132 102.681 13.3722 101.502 13.3722C100.289 13.3722 98.4372 14.0126 98.4372 16.7428V24.7637C98.4372 25.2693 98.1339 25.5728 97.6285 25.5728H95.0351C94.5304 25.5734 94.2271 25.2699 94.2271 24.7643Z" fill="#121E49"/>
<path d="M111.944 17.8222C111.944 13.1374 115.177 9.80078 119.859 9.80078C122.285 9.80078 124.305 10.7441 125.653 12.2943C125.989 12.6986 125.922 13.1035 125.518 13.4403L123.767 14.7885C123.363 15.092 123.025 15.058 122.621 14.7211C122.049 14.2155 121.207 13.7772 119.961 13.7772C117.637 13.7772 116.053 15.4962 116.053 17.8216C116.053 20.147 117.637 21.866 119.961 21.866C121.241 21.866 122.049 21.4618 122.621 20.9901C123.025 20.6533 123.362 20.6193 123.767 20.9228L125.518 22.2375C125.956 22.5744 126.023 22.9113 125.72 23.2821C124.339 24.8998 122.318 25.8771 119.859 25.8771C115.177 25.8771 111.944 22.5064 111.944 17.8222Z" fill="#121E49"/>
<path d="M128.044 17.8224C128.044 13.205 131.075 9.76758 135.757 9.76758C140.372 9.76758 143.202 13.205 143.202 17.8224V18.1593C143.202 18.6649 142.898 18.9684 142.393 18.9684H132.086C132.49 21.0577 134.006 22.3051 135.926 22.3051C137.475 22.3051 138.452 21.7661 139.092 21.1931C139.463 20.8562 139.799 20.7888 140.204 21.0923L141.787 22.2717C142.225 22.6086 142.326 22.9455 142.023 23.3163C140.642 24.934 138.486 25.9112 135.926 25.9112C131.177 25.9107 128.044 22.4392 128.044 17.8224ZM139.261 16.3055C138.89 14.4858 137.745 13.1036 135.757 13.1036C133.837 13.1036 132.557 14.3504 132.153 16.3055H139.261Z" fill="#121E49"/>
<path d="M146.333 24.7642V10.8791C146.333 10.3735 146.636 10.07 147.141 10.07H149.734C150.24 10.07 150.543 10.3735 150.543 10.8791V12.8677C151.688 11.0479 153.406 10.138 155.157 9.90188C155.696 9.8345 155.999 10.1374 155.999 10.677V13.0024C155.999 13.508 155.73 13.7776 155.225 13.8109C153.439 13.9791 150.543 14.6874 150.543 18.4618V24.7642C150.543 25.2698 150.24 25.5733 149.734 25.5733H147.141C146.636 25.5733 146.333 25.2698 146.333 24.7642Z" fill="#121E49"/>
</svg>
