<?xml version="1.0" encoding="UTF-8"?>
<!DOCTYPE svg PUBLIC "-//W3C//DTD SVG 1.1//EN" "http://www.w3.org/Graphics/SVG/1.1/DTD/svg11.dtd">
<!-- Creator: CorelDRAW 2018 -->
<svg xmlns="http://www.w3.org/2000/svg" xml:space="preserve" width="490px" height="150px" version="1.1" style="shape-rendering:geometricPrecision; text-rendering:geometricPrecision; image-rendering:optimizeQuality; fill-rule:evenodd; clip-rule:evenodd"
viewBox="0 0 490 150"
 xmlns:xlink="http://www.w3.org/1999/xlink">
 <defs>
  <style type="text/css">
   <![CDATA[
    .fil4 {fill:#2BC2AE}
    .fil0 {fill:white}
    .fil3 {fill:#373435;fill-rule:nonzero}
    .fil1 {fill:#F2F2F2;fill-rule:nonzero}
    .fil5 {fill:white;fill-rule:nonzero}
    .fil2 {fill:url(#id0)}
   ]]>
  </style>
  <linearGradient id="id0" gradientUnits="userSpaceOnUse" x1="106.59" y1="69.29" x2="20.77" y2="78.79">
   <stop offset="0" style="stop-opacity:1; stop-color:#47F0E8"/>
   <stop offset="0.27451" style="stop-opacity:1; stop-color:#24DFB2"/>
   <stop offset="0.458824" style="stop-opacity:1; stop-color:#2BE3BE"/>
   <stop offset="1" style="stop-opacity:1; stop-color:#00CE7C"/>
  </linearGradient>
 </defs>
 <g id="Layer_x0020_1">
  <metadata id="CorelCorpID_0Corel-Layer"/>
  <path class="fil0" d="M92.45 49.72c7.27,9.5 14.25,19.77 14.25,32.68 0,24.62 -19.95,44.58 -44.58,44.58 -24.62,0 -44.58,-19.96 -44.58,-44.58 0,-12.28 5.61,-22.81 13,-31.46 8.97,-10.5 8.65,-10.76 17.34,-21.49 3.99,-4.91 9.29,-7.45 14.72,-7.45 6.04,0 11.8,3.24 16.1,9.09 9.27,12.62 6.71,9.44 13.75,18.63z"/>
  <path class="fil1" d="M69.66 68.03l0 35.54c0,2.46 -0.58,4.32 -1.75,5.58 -1.17,1.26 -2.64,1.89 -4.44,1.89 -1.8,0 -3.26,-0.65 -4.38,-1.94 -1.12,-1.29 -1.69,-3.13 -1.69,-5.53l0 -35.17c0,-2.44 0.57,-4.27 1.69,-5.5 1.12,-1.23 2.58,-1.85 4.38,-1.85 1.8,0 3.27,0.62 4.44,1.85 1.17,1.23 1.75,2.95 1.75,5.13zm-6.07 -12.7c-1.7,0 -3.16,-0.52 -4.38,-1.56 -1.21,-1.05 -1.81,-2.54 -1.81,-4.46 0,-1.72 0.61,-3.15 1.86,-4.28 1.24,-1.12 2.69,-1.69 4.33,-1.69 1.6,0 3,0.51 4.23,1.53 1.23,1.03 1.84,2.5 1.84,4.44 0,1.89 -0.6,3.36 -1.79,4.42 -1.2,1.06 -2.62,1.6 -4.28,1.6z"/>
  <path class="fil2" d="M92.97 50.11c7.03,9.18 13.78,19.1 13.78,31.57 0,23.79 -19.28,43.07 -43.07,43.07 -23.79,0 -43.07,-19.28 -43.07,-43.07 0,-11.86 5.41,-22.03 12.56,-30.39 8.66,-10.14 8.35,-10.4 16.75,-20.76 3.85,-4.75 8.97,-7.2 14.22,-7.2 5.84,0 11.4,3.13 15.56,8.79 8.95,12.18 6.48,9.11 13.27,17.99z"/>
  <path class="fil3" d="M138 62.6l0 35.54c0,2.46 -0.58,4.32 -1.75,5.58 -1.17,1.26 -2.64,1.89 -4.44,1.89 -1.8,0 -3.26,-0.64 -4.38,-1.94 -1.13,-1.29 -1.69,-3.13 -1.69,-5.53l0 -35.17c0,-2.44 0.56,-4.27 1.69,-5.5 1.12,-1.23 2.58,-1.85 4.38,-1.85 1.8,0 3.27,0.62 4.44,1.85 1.17,1.23 1.75,2.95 1.75,5.13zm-6.07 -12.69c-1.71,0 -3.17,-0.53 -4.38,-1.57 -1.21,-1.05 -1.81,-2.54 -1.81,-4.46 0,-1.72 0.61,-3.15 1.86,-4.27 1.24,-1.13 2.69,-1.7 4.33,-1.7 1.6,0 3,0.51 4.23,1.53 1.23,1.03 1.84,2.5 1.84,4.44 0,1.89 -0.6,3.37 -1.8,4.43 -1.2,1.06 -2.61,1.6 -4.27,1.6zm29.93 12.51l0 1.49c2.17,-2.86 4.53,-4.95 7.1,-6.29 2.57,-1.34 5.52,-2 8.86,-2 3.24,0 6.13,0.71 8.7,2.12 2.55,1.4 4.45,3.4 5.71,5.98 0.82,1.51 1.34,3.12 1.59,4.88 0.23,1.73 0.35,3.95 0.35,6.65l0 22.89c0,2.46 -0.57,4.32 -1.69,5.58 -1.12,1.26 -2.6,1.89 -4.4,1.89 -1.83,0 -3.32,-0.64 -4.47,-1.94 -1.14,-1.29 -1.71,-3.13 -1.71,-5.53l0 -20.5c0,-4.05 -0.57,-7.15 -1.69,-9.3 -1.12,-2.14 -3.36,-3.22 -6.73,-3.22 -2.18,0 -4.18,0.65 -5.99,1.95 -1.8,1.31 -3.13,3.11 -3.96,5.4 -0.59,1.83 -0.9,5.24 -0.9,10.27l0 15.4c0,2.49 -0.59,4.35 -1.74,5.6 -1.15,1.24 -2.64,1.87 -4.46,1.87 -1.76,0 -3.23,-0.64 -4.36,-1.94 -1.14,-1.29 -1.71,-3.13 -1.71,-5.53l0 -35.54c0,-2.33 0.51,-4.09 1.52,-5.24 1.03,-1.15 2.42,-1.74 4.18,-1.74 1.08,0 2.06,0.27 2.92,0.77 0.88,0.51 1.57,1.28 2.1,2.29 0.52,1.03 0.78,2.28 0.78,3.74zm44.58 35.72l0 -53.31c0,-2.46 0.55,-4.32 1.64,-5.58 1.09,-1.26 2.57,-1.89 4.43,-1.89 1.84,0 3.35,0.63 4.49,1.88 1.13,1.24 1.7,3.1 1.7,5.59l0 53.31c0,2.49 -0.58,4.35 -1.73,5.6 -1.16,1.24 -2.65,1.87 -4.46,1.87 -1.8,0 -3.26,-0.64 -4.38,-1.94 -1.12,-1.29 -1.69,-3.13 -1.69,-5.53zm56.06 0.57c-2.98,2.31 -5.86,4.03 -8.63,5.18 -2.78,1.15 -5.9,1.72 -9.34,1.72 -3.15,0 -5.94,-0.63 -8.32,-1.87 -2.38,-1.25 -4.22,-2.92 -5.52,-5.06 -1.29,-2.14 -1.93,-4.44 -1.93,-6.93 0,-3.37 1.06,-6.23 3.19,-8.6 2.14,-2.38 5.08,-3.96 8.81,-4.78 0.77,-0.18 2.71,-0.58 5.8,-1.21 3.09,-0.63 5.75,-1.2 7.94,-1.74 2.2,-0.52 4.6,-1.15 7.18,-1.9 -0.15,-3.25 -0.8,-5.63 -1.95,-7.14 -1.17,-1.52 -3.55,-2.27 -7.19,-2.27 -3.12,0 -5.48,0.43 -7.04,1.31 -1.59,0.86 -2.94,2.16 -4.06,3.91 -1.12,1.74 -1.92,2.88 -2.38,3.45 -0.48,0.55 -1.48,0.83 -3,0.83 -1.39,0 -2.58,-0.45 -3.58,-1.34 -1,-0.88 -1.51,-2.01 -1.51,-3.4 0,-2.16 0.77,-4.27 2.29,-6.31 1.54,-2.05 3.92,-3.72 7.16,-5.05 3.25,-1.32 7.29,-1.98 12.13,-1.98 5.4,0 9.66,0.65 12.74,1.92 3.09,1.28 5.28,3.29 6.55,6.06 1.28,2.77 1.92,6.42 1.92,10.99 0,2.89 -0.01,5.33 -0.03,7.35 -0.01,2.01 -0.03,4.25 -0.06,6.72 0,2.3 0.39,4.71 1.16,7.22 0.76,2.49 1.13,4.1 1.13,4.83 0,1.26 -0.58,2.41 -1.76,3.44 -1.2,1.03 -2.54,1.55 -4.05,1.55 -1.26,0 -2.5,-0.58 -3.73,-1.77 -1.23,-1.18 -2.54,-2.89 -3.92,-5.13zm-0.82 -17.82c-1.8,0.67 -4.41,1.37 -7.85,2.09 -3.43,0.74 -5.81,1.3 -7.13,1.63 -1.33,0.36 -2.59,1.03 -3.79,2.03 -1.19,1.02 -1.79,2.42 -1.79,4.23 0,1.86 0.7,3.44 2.12,4.75 1.4,1.31 3.24,1.97 5.53,1.97 2.43,0 4.67,-0.54 6.72,-1.6 2.06,-1.08 3.56,-2.44 4.53,-4.14 1.11,-1.86 1.66,-4.93 1.66,-9.2l0 -1.76zm35.68 -18.47l0 1.49c2.17,-2.86 4.53,-4.95 7.1,-6.29 2.57,-1.34 5.52,-2 8.86,-2 3.24,0 6.13,0.71 8.7,2.12 2.55,1.4 4.45,3.4 5.72,5.98 0.81,1.51 1.33,3.12 1.58,4.88 0.23,1.73 0.35,3.95 0.35,6.65l0 22.89c0,2.46 -0.57,4.32 -1.69,5.58 -1.12,1.26 -2.6,1.89 -4.4,1.89 -1.82,0 -3.32,-0.64 -4.47,-1.94 -1.14,-1.29 -1.7,-3.13 -1.7,-5.53l0 -20.5c0,-4.05 -0.57,-7.15 -1.7,-9.3 -1.12,-2.14 -3.36,-3.22 -6.73,-3.22 -2.18,0 -4.18,0.65 -5.99,1.95 -1.8,1.31 -3.12,3.11 -3.95,5.4 -0.6,1.83 -0.91,5.24 -0.91,10.27l0 15.4c0,2.49 -0.59,4.35 -1.74,5.6 -1.15,1.24 -2.64,1.87 -4.46,1.87 -1.76,0 -3.22,-0.64 -4.36,-1.94 -1.14,-1.29 -1.71,-3.13 -1.71,-5.53l0 -35.54c0,-2.33 0.51,-4.09 1.52,-5.24 1.03,-1.15 2.42,-1.74 4.19,-1.74 1.07,0 2.05,0.27 2.92,0.77 0.87,0.51 1.56,1.28 2.09,2.29 0.52,1.03 0.78,2.28 0.78,3.74zm88.68 27.99c0,1.52 -0.46,3.17 -1.38,4.9 -0.91,1.74 -2.31,3.4 -4.18,4.97 -1.88,1.57 -4.25,2.84 -7.11,3.8 -2.84,0.96 -6.05,1.44 -9.63,1.44 -7.6,0 -13.53,-2.21 -17.79,-6.64 -4.27,-4.43 -6.41,-10.36 -6.41,-17.82 0,-5.04 0.98,-9.5 2.94,-13.37 1.95,-3.87 4.78,-6.87 8.47,-8.98 3.7,-2.12 8.11,-3.18 13.25,-3.18 3.18,0 6.1,0.46 8.76,1.4 2.64,0.94 4.9,2.14 6.75,3.61 1.84,1.48 3.25,3.05 4.22,4.71 0.99,1.67 1.48,3.22 1.48,4.67 0,1.47 -0.55,2.72 -1.65,3.75 -1.1,1.01 -2.42,1.52 -3.99,1.52 -1.02,0 -1.86,-0.26 -2.54,-0.78 -0.68,-0.52 -1.43,-1.37 -2.27,-2.54 -1.51,-2.27 -3.08,-4 -4.71,-5.13 -1.64,-1.14 -3.72,-1.71 -6.24,-1.71 -3.63,0 -6.56,1.42 -8.78,4.26 -2.22,2.83 -3.33,6.7 -3.33,11.62 0,2.31 0.29,4.43 0.86,6.36 0.57,1.94 1.38,3.6 2.47,4.95 1.08,1.37 2.39,2.4 3.92,3.11 1.53,0.71 3.22,1.06 5.05,1.06 2.46,0 4.56,-0.57 6.31,-1.71 1.77,-1.13 3.32,-2.89 4.68,-5.22 0.73,-1.39 1.55,-2.46 2.43,-3.23 0.86,-0.79 1.93,-1.19 3.19,-1.19 1.51,0 2.75,0.59 3.74,1.73 0.98,1.13 1.49,2.35 1.49,3.64zm44.99 -6.75l-24.05 0c0.03,2.8 0.59,5.26 1.69,7.39 1.09,2.14 2.55,3.74 4.36,4.82 1.82,1.09 3.83,1.63 6.01,1.63 1.48,0 2.82,-0.17 4.03,-0.53 1.23,-0.34 2.4,-0.87 3.54,-1.61 1.15,-0.74 2.19,-1.52 3.15,-2.37 0.96,-0.84 2.21,-1.98 3.75,-3.43 0.63,-0.53 1.52,-0.81 2.69,-0.81 1.26,0 2.29,0.35 3.07,1.04 0.77,0.68 1.17,1.67 1.17,2.93 0,1.1 -0.45,2.39 -1.31,3.88 -0.87,1.48 -2.18,2.91 -3.95,4.26 -1.75,1.37 -3.95,2.51 -6.61,3.4 -2.66,0.91 -5.72,1.35 -9.16,1.35 -7.9,0 -14.03,-2.26 -18.41,-6.76 -4.39,-4.51 -6.57,-10.61 -6.57,-18.32 0,-3.63 0.54,-7.01 1.62,-10.12 1.07,-3.1 2.66,-5.76 4.72,-7.99 2.07,-2.22 4.62,-3.92 7.65,-5.11 3.03,-1.18 6.39,-1.78 10.08,-1.78 4.81,0 8.93,1.02 12.36,3.04 3.45,2.03 6.01,4.65 7.73,7.88 1.71,3.21 2.57,6.48 2.57,9.82 0,3.09 -0.89,5.1 -2.66,6.02 -1.77,0.91 -4.26,1.37 -7.47,1.37zm-24.05 -7.01l22.28 0c-0.29,-4.2 -1.43,-7.33 -3.39,-9.42 -1.97,-2.08 -4.55,-3.12 -7.77,-3.12 -3.07,0 -5.58,1.06 -7.54,3.16 -1.97,2.13 -3.17,5.25 -3.58,9.38zm56.73 11.22l0 10.27c0,2.49 -0.58,4.35 -1.75,5.6 -1.17,1.24 -2.65,1.87 -4.44,1.87 -1.77,0 -3.23,-0.63 -4.37,-1.89 -1.14,-1.26 -1.7,-3.12 -1.7,-5.58l0 -34.23c0,-5.52 1.99,-8.29 5.98,-8.29 2.02,0 3.5,0.65 4.39,1.94 0.91,1.29 1.4,3.21 1.49,5.73 1.46,-2.52 2.97,-4.44 4.52,-5.73 1.55,-1.29 3.61,-1.94 6.2,-1.94 2.58,0 5.08,0.65 7.51,1.94 2.43,1.29 3.65,3.01 3.65,5.15 0,1.51 -0.51,2.74 -1.56,3.72 -1.03,0.98 -2.15,1.46 -3.35,1.46 -0.44,0 -1.53,-0.28 -3.26,-0.83 -1.73,-0.55 -3.26,-0.83 -4.58,-0.83 -1.8,0 -3.26,0.48 -4.41,1.41 -1.14,0.96 -2.03,2.36 -2.66,4.22 -0.63,1.86 -1.06,4.07 -1.3,6.64 -0.24,2.56 -0.36,5.68 -0.36,9.37z"/>
  <path class="fil4" d="M61.17 60.32l45.34 18.38c0.13,1.2 0.19,2.43 0.19,3.68 0,16.12 -9.18,29.57 -22.31,37.07l-23.22 -8.79 0 -50.34z"/>
  <path class="fil4" d="M62.07 42.73l34.99 13.14c3.45,4.83 6.48,9.94 8.23,15.56l-43.22 -16.23 0 -12.47z"/>
  <path class="fil5" d="M68.4 66.83l0 35.54c0,2.45 -0.59,4.31 -1.76,5.57 -1.16,1.26 -2.64,1.9 -4.44,1.9 -1.8,0 -3.26,-0.65 -4.38,-1.94 -1.12,-1.29 -1.69,-3.14 -1.69,-5.53l0 -35.18c0,-2.44 0.57,-4.27 1.69,-5.5 1.12,-1.23 2.58,-1.84 4.38,-1.84 1.8,0 3.28,0.61 4.44,1.84 1.17,1.23 1.76,2.95 1.76,5.14zm-6.07 -12.7c-1.71,0 -3.17,-0.52 -4.39,-1.57 -1.21,-1.04 -1.81,-2.54 -1.81,-4.46 0,-1.72 0.62,-3.15 1.86,-4.27 1.25,-1.12 2.69,-1.69 4.34,-1.69 1.59,0 2.99,0.51 4.22,1.52 1.23,1.03 1.85,2.51 1.85,4.44 0,1.89 -0.6,3.37 -1.8,4.43 -1.2,1.06 -2.61,1.6 -4.27,1.6z"/>
 </g>
</svg>
